<svg width="500" height="500" viewBox="0 0 500 500" fill="none" xmlns="http://www.w3.org/2000/svg">
<path d="M500 382.4H0V382.65H500V382.4Z" fill="#219F27"/>
<path d="M445.26 393.85H394.36V394.1H445.26V393.85Z" fill="#219F27"/>
<path d="M99.67 390.89H52.46V391.14H99.67V390.89Z" fill="#219F27"/>
<path d="M398 389.21H378.81V389.46H398V389.21Z" fill="#219F27"/>
<path d="M331.22 395.84H317.14V396.09H331.22V395.84Z" fill="#219F27"/>
<path d="M308.23 395.84H272.79V396.09H308.23V395.84Z" fill="#219F27"/>
<path d="M252.21 391.62H195.22V391.87H252.21V391.62Z" fill="#219F27"/>
<path d="M237 337.8H43.91C42.3973 337.797 40.9475 337.195 39.8789 336.124C38.8102 335.054 38.21 333.603 38.21 332.09V60.66C38.2232 59.156 38.8292 57.718 39.8964 56.6582C40.9637 55.5985 42.406 55.0026 43.91 55H237C238.514 55 239.967 55.6016 241.038 56.6724C242.108 57.7433 242.71 59.1956 242.71 60.71V332.09C242.71 333.604 242.108 335.057 241.038 336.128C239.967 337.198 238.514 337.8 237 337.8ZM43.91 55.2C42.4636 55.2026 41.0774 55.7791 40.0557 56.8027C39.0339 57.8264 38.46 59.2136 38.46 60.66V332.09C38.46 333.536 39.0339 334.924 40.0557 335.947C41.0774 336.971 42.4636 337.547 43.91 337.55H237C238.447 337.547 239.835 336.971 240.858 335.948C241.881 334.924 242.457 333.537 242.46 332.09V60.66C242.457 59.2127 241.881 57.8255 240.858 56.8021C239.835 55.7787 238.447 55.2026 237 55.2H43.91Z" fill="#219F27"/>
<path d="M453.31 337.8H260.21C258.696 337.797 257.246 337.195 256.175 336.125C255.105 335.054 254.503 333.604 254.5 332.09V60.66C254.516 59.1551 255.124 57.7171 256.193 56.6576C257.262 55.5981 258.705 55.0025 260.21 55H453.31C454.812 55.0052 456.252 55.6022 457.317 56.6617C458.382 57.7212 458.987 59.1578 459 60.66V332.09C459 333.601 458.401 335.05 457.335 336.121C456.268 337.191 454.821 337.795 453.31 337.8ZM260.21 55.2C258.763 55.2026 257.375 55.7787 256.352 56.8021C255.329 57.8255 254.753 59.2127 254.75 60.66V332.09C254.753 333.537 255.329 334.924 256.352 335.948C257.375 336.971 258.763 337.547 260.21 337.55H453.31C454.757 337.547 456.145 336.971 457.168 335.948C458.191 334.924 458.767 333.537 458.77 332.09V60.66C458.767 59.2127 458.191 57.8255 457.168 56.8021C456.145 55.7787 454.757 55.2026 453.31 55.2H260.21Z" fill="#219F27"/>
<path d="M77.01 206.38L217.64 206.38L217.64 81.5699L77.01 81.5699L77.01 206.38Z" fill="#4EA852"/>
<path d="M73.89 206.38L214.52 206.38L214.52 81.5699L73.89 81.5699L73.89 206.38Z" fill="#3D3D3D"/>
<path d="M208.91 200.09V87.8799L79.5 87.8799V200.09H208.91Z" fill="#DBFFDD"/>
<path d="M81.85 200.09V87.8799H79.49V200.09H81.85Z" fill="#4EA852"/>
<path d="M76.21 189.35L212.2 189.35V180.89L76.21 180.89V189.35Z" fill="#3D3D3D"/>
<path d="M67.77 71.1504H223.77C223.884 71.1491 223.997 71.1704 224.102 71.213C224.208 71.2556 224.304 71.3188 224.385 71.3988C224.466 71.4788 224.53 71.574 224.574 71.679C224.617 71.784 224.64 71.8967 224.64 72.0105C224.637 72.2395 224.545 72.4582 224.382 72.6192C224.219 72.7802 223.999 72.8705 223.77 72.8705H67.77C67.5393 72.8705 67.318 72.7788 67.1548 72.6156C66.9917 72.4525 66.9 72.2312 66.9 72.0004C66.9013 71.8875 66.9248 71.7759 66.9693 71.6721C67.0137 71.5683 67.0781 71.4742 67.1589 71.3952C67.2397 71.3163 67.3353 71.2541 67.4401 71.2121C67.545 71.1701 67.6571 71.1491 67.77 71.1504Z" fill="#4EA852"/>
<path d="M64.74 71.9998C64.74 72.4271 64.8667 72.8447 65.104 73.1999C65.3414 73.5551 65.6787 73.8319 66.0734 73.9954C66.4681 74.1589 66.9024 74.2017 67.3214 74.1183C67.7404 74.035 68.1253 73.8293 68.4273 73.5272C68.7294 73.2251 68.9351 72.8402 69.0185 72.4212C69.1018 72.0022 69.0591 71.5679 68.8956 71.1732C68.7321 70.7786 68.4552 70.4412 68.1 70.2039C67.7448 69.9665 67.3272 69.8398 66.9 69.8398C66.3271 69.8398 65.7777 70.0674 65.3726 70.4725C64.9676 70.8776 64.74 71.427 64.74 71.9998Z" fill="#4EA852"/>
<path d="M216.47 76.85C216.779 76.8474 217.076 76.7233 217.294 76.5044C217.513 76.2856 217.637 75.9895 217.64 75.68V73.17C217.64 72.8597 217.517 72.5621 217.297 72.3427C217.078 72.1233 216.78 72 216.47 72C216.162 72 215.867 72.1222 215.65 72.3398C215.432 72.5573 215.31 72.8524 215.31 73.16V75.67C215.309 75.8236 215.338 75.9761 215.395 76.1185C215.453 76.261 215.538 76.3907 215.646 76.5003C215.753 76.6098 215.882 76.6971 216.023 76.7571C216.164 76.8171 216.316 76.8487 216.47 76.85Z" fill="#4EA852"/>
<path d="M80.79 76.8497C80.9466 76.8537 81.1025 76.8265 81.2485 76.7696C81.3944 76.7127 81.5276 76.6273 81.6403 76.5184C81.7529 76.4095 81.8427 76.2792 81.9045 76.1352C81.9662 75.9912 81.9987 75.8364 82 75.6797V73.1697C82.0001 73.0126 81.9685 72.8572 81.9073 72.7125C81.846 72.5679 81.7562 72.4371 81.6433 72.3279C81.5304 72.2187 81.3966 72.1334 81.25 72.077C81.1034 72.0206 80.947 71.9943 80.79 71.9997C80.4823 71.9997 80.1873 72.1219 79.9697 72.3395C79.7522 72.557 79.63 72.8521 79.63 73.1597V75.6697C79.6287 75.8234 79.6576 75.9758 79.7152 76.1182C79.7728 76.2607 79.8579 76.3904 79.9656 76.5C80.0733 76.6095 80.2016 76.6968 80.343 76.7568C80.4845 76.8168 80.6363 76.8484 80.79 76.8497Z" fill="#4EA852"/>
<path opacity="0.4" d="M68.05 194.17L212.2 194.17L212.2 72.0099L68.05 72.0099L68.05 194.17Z" fill="#219F27"/>
<path d="M200.43 71.9998C200.43 72.4271 200.557 72.8447 200.794 73.1999C201.031 73.5551 201.369 73.8319 201.763 73.9954C202.158 74.1589 202.592 74.2017 203.011 74.1183C203.43 74.035 203.815 73.8293 204.117 73.5272C204.419 73.2251 204.625 72.8402 204.708 72.4212C204.792 72.0022 204.749 71.5679 204.586 71.1732C204.422 70.7786 204.145 70.4412 203.79 70.2039C203.435 69.9665 203.017 69.8398 202.59 69.8398C202.017 69.8398 201.468 70.0674 201.063 70.4725C200.658 70.8776 200.43 71.427 200.43 71.9998Z" fill="#4EA852"/>
<path d="M180.32 376.19H212.26L212.26 244.63H180.32L180.32 376.19Z" fill="#30B137"/>
<path d="M83.46 382.4H206.12V376.19H83.46V382.4Z" fill="#30B137"/>
<path d="M180.31 244.63H77.33V376.19H180.31V244.63Z" fill="#3D3D3D"/>
<path d="M167.75 294.34H89.89V326.47H167.75V294.34Z" fill="#30B137"/>
<path d="M167.75 332.34H89.89V364.47H167.75V332.34Z" fill="#30B137"/>
<path d="M167.75 256.35H89.89V288.48H167.75V256.35Z" fill="#30B137"/>
<path d="M73.07 244.63H180.31V233.83H73.07V244.63Z" fill="#30B137"/>
<path d="M216.71 233.83H180.31V244.63H216.71V233.83Z" fill="#4EA852"/>
<path d="M136.06 216.51H119.04V233.82H136.06V216.51Z" fill="#30B137"/>
<path d="M88.84 233.83H119.03V216.52H88.84V233.83Z" fill="#3D3D3D"/>
<g style="mix-blend-mode:multiply" opacity="0.7">
<path d="M136.05 219.12H88.67V220.52H136.05V219.12Z" fill="#4EA852"/>
</g>
<path d="M136.99 215.67H119.04V219.72H136.99V215.67Z" fill="#30B137"/>
<path d="M87.9 219.71H119.03V215.66H87.9V219.71Z" fill="#3D3D3D"/>
<path d="M196.5 216.51H179.48V233.82H196.5V216.51Z" fill="#30B137"/>
<path d="M149.29 233.83H179.48V216.52H149.29V233.83Z" fill="#3D3D3D"/>
<g style="mix-blend-mode:multiply" opacity="0.7">
<path d="M196.49 219.12H149.11V220.52H196.49V219.12Z" fill="#4EA852"/>
</g>
<path d="M197.43 215.67H179.48V219.72H197.43V215.67Z" fill="#30B137"/>
<path d="M148.35 219.71H179.48V215.66H148.35V219.71Z" fill="#3D3D3D"/>
<path d="M374.25 201H440.15V120.42L374.25 120.42V201Z" fill="#30B137"/>
<path d="M360.1 201H435.9V120.42L360.1 120.42V201Z" fill="#3D3D3D"/>
<path d="M366.44 126.77V194.65H429.54V126.77H366.44Z" fill="#DBFFDD"/>
<path d="M381.73 147.34V174.06C381.73 176.341 383.579 178.19 385.86 178.19H410.11C412.391 178.19 414.24 176.341 414.24 174.06V147.34C414.24 145.06 412.391 143.21 410.11 143.21H385.86C383.579 143.21 381.73 145.06 381.73 147.34Z" fill="#3D3D3D"/>
<path d="M288.91 163.54H354.81V82.96L288.91 82.96V163.54Z" fill="#30B137"/>
<path d="M274.77 163.54H350.57V82.96L274.77 82.96V163.54Z" fill="#3D3D3D"/>
<path d="M281.12 89.3104V157.19H344.22V89.3104H281.12Z" fill="#DBFFDD"/>
<path d="M296.41 114.69V131.79C296.41 136.728 300.413 140.73 305.35 140.73H319.98C324.917 140.73 328.92 136.728 328.92 131.79V114.69C328.92 109.753 324.917 105.75 319.98 105.75H305.35C300.413 105.75 296.41 109.753 296.41 114.69Z" fill="#3D3D3D"/>
<path d="M196.29 382.4H243.71L243.71 261.15H196.29V382.4Z" fill="#4EA852"/>
<path d="M201.05 382.4H196.28V365.89H206.06L201.05 382.4Z" fill="#30B137"/>
<path d="M270.61 382.4H318.03V261.15H270.61V382.4Z" fill="#4EA852"/>
<path d="M196.29 372.26H274.77V261.14H196.29V372.26Z" fill="#30B137"/>
<path d="M199.99 296.55H271.07V266.08H199.99V296.55Z" fill="#4EA852"/>
<path d="M228.56 275.54H239.28C243.93 275.54 248.38 271.78 251.58 265.15H216.26C219.46 271.78 223.91 275.54 228.56 275.54Z" fill="#30B137"/>
<path d="M269.99 382.4H274.76V365.89H264.99L269.99 382.4Z" fill="#30B137"/>
<path d="M199.99 331.94H271.07V301.47H199.99V331.94Z" fill="#4EA852"/>
<path d="M228.56 310.94H239.28C243.93 310.94 248.38 307.18 251.58 300.54H216.26C219.46 307.18 223.91 310.94 228.56 310.94Z" fill="#30B137"/>
<path d="M199.99 367.34H271.07V336.87H199.99V367.34Z" fill="#4EA852"/>
<path d="M228.56 346.34H239.28C243.93 346.34 248.38 342.58 251.58 335.94H216.26C219.46 342.58 223.91 346.34 228.56 346.34Z" fill="#30B137"/>
<path d="M383.45 246.82L374.92 276.77C375.18 341.51 372.26 345.24 372.23 356.37H381.23C382.08 302.19 387.4 306.8 383.45 246.82Z" fill="#30B137"/>
<path d="M381.8 382.4C389.923 382.402 397.803 379.626 404.131 374.533C410.46 369.44 414.856 362.336 416.59 354.4C417.435 350.126 418.649 345.933 420.22 341.87L420.49 341.22H343.12L343.39 341.87C344.956 345.919 346.164 350.099 347 354.36C348.728 362.304 353.123 369.418 359.454 374.519C365.784 379.62 373.67 382.401 381.8 382.4Z" fill="#219F27"/>
<path d="M338.11 345.1H425.5L428 326.17H335.61L338.11 345.1Z" fill="#30B137"/>
<path d="M378.58 332.54C375.35 270.15 416.52 266.54 432.83 287.64C441.49 310.29 380.44 368.42 378.58 332.54Z" fill="#30B137"/>
<path d="M378.64 306.73C372.05 260.68 402.08 251.98 415.5 265.3C423.39 280.93 382.43 333.22 378.64 306.73Z" fill="#30B137"/>
<path d="M380.56 273.17C373.73 244.11 392.43 236.84 401.76 244.59C407.69 254.13 384.49 289.88 380.56 273.17Z" fill="#30B137"/>
<path d="M374.36 293.88C386.2 258.54 363.79 247.36 351.3 255.88C342.82 267.1 367.55 314.2 374.36 293.88Z" fill="#30B137"/>
<path d="M381.47 275.87C398.68 242.82 378.29 228.28 364.61 234.78C354.5 244.49 371.57 294.88 381.47 275.87Z" fill="#30B137"/>
<path d="M377.11 328.59C385.59 274.12 349.78 267.26 333.56 284.27C323.91 303.38 372.23 359.91 377.11 328.59Z" fill="#30B137"/>
<path d="M250 427.56C357.082 427.56 443.89 422.492 443.89 416.24C443.89 409.988 357.082 404.92 250 404.92C142.918 404.92 56.11 409.988 56.11 416.24C56.11 422.492 142.918 427.56 250 427.56Z" fill="#3D3D3D"/>
<path d="M272.06 407.62H264.34L264.01 389.76H271.73L272.06 407.62Z" fill="#FFB573"/>
<path d="M318.37 407.62H310.66L307.22 389.76H314.93L318.37 407.62Z" fill="#FFB573"/>
<path d="M310.13 406.731H318.8C318.952 406.728 319.1 406.78 319.218 406.878C319.335 406.975 319.414 407.11 319.44 407.261L320.8 414.111C320.829 414.28 320.821 414.453 320.776 414.619C320.731 414.785 320.651 414.938 320.54 415.07C320.43 415.201 320.292 415.307 320.137 415.38C319.981 415.452 319.812 415.49 319.64 415.491C316.64 415.431 315.15 415.261 311.34 415.261C308.99 415.261 304.15 415.501 300.92 415.501C297.69 415.501 297.33 412.301 298.67 412.011C304.67 410.711 306.92 408.911 308.87 407.201C309.223 406.903 309.668 406.737 310.13 406.731Z" fill="#263238"/>
<path d="M264.41 406.73H272.84C272.992 406.73 273.139 406.783 273.256 406.88C273.373 406.977 273.452 407.111 273.48 407.26L274.84 414.11C274.872 414.278 274.867 414.451 274.825 414.617C274.783 414.783 274.704 414.937 274.595 415.069C274.486 415.201 274.35 415.307 274.195 415.38C274.04 415.453 273.871 415.491 273.7 415.49C270.7 415.43 266.27 415.26 262.45 415.26C257.98 415.26 254.12 415.5 248.88 415.5C245.72 415.5 244.88 412.3 246.25 412.01C252.32 410.69 257.25 410.55 262.54 407.33C263.097 406.964 263.744 406.756 264.41 406.73Z" fill="#263238"/>
<path d="M264.19 165.51L256 158.13C256 158.13 238 186.49 234.38 188.07C229.38 190.21 212.77 204.56 207.3 207.88C206.95 209.14 207.04 212.61 207.67 213.62C216.77 212.84 238.78 199.46 242.4 196.09C250.6 188.4 264.19 165.51 264.19 165.51Z" fill="#FFB573"/>
<path d="M269.9 159.68C271.11 166.96 254.31 184.8 254.31 184.8L240.85 173.8C244.339 167.946 248.432 162.473 253.06 157.47C260 150.42 268.58 151.7 269.9 159.68Z" fill="#263238"/>
<path opacity="0.2" d="M250.83 182L254.31 184.82C254.31 184.82 258.08 180.82 261.91 175.82C266.4 169.3 269.86 163.4 269.97 160.67V160.6C268.26 159.35 258.52 169.92 250.83 182Z" fill="black"/>
<path d="M208.41 207.311L200.47 208.781L200.03 217.321C203.409 216.446 206.634 215.056 209.59 213.201L208.41 207.311Z" fill="#FFB573"/>
<path d="M192 211.65L193.17 216.04L200.03 217.32L200.47 208.78L192 211.65Z" fill="#FFB573"/>
<path opacity="0.2" d="M264.01 389.76L264.18 398.97H271.9L271.73 389.76H264.01Z" fill="black"/>
<path opacity="0.2" d="M314.94 389.76H307.22L309 398.97H316.71L314.94 389.76Z" fill="black"/>
<path d="M243.11 169.24L238.49 174.74L253.46 187.08L259.45 181.16L243.11 169.24Z" fill="#219F27"/>
<path d="M258.8 153.45C258.8 153.45 249.12 176.75 256.71 220.13H298C298.44 213.8 295.22 182.9 302.06 153.06C297.513 152.18 292.913 151.595 288.29 151.31C282.448 150.975 276.592 150.975 270.75 151.31C266.718 151.715 262.722 152.43 258.8 153.45Z" fill="#263238"/>
<path opacity="0.2" d="M292.88 160.42C292.08 165.34 293.34 177.09 297.68 190.67C297.892 179.037 299.131 167.445 301.38 156.03V156C298.67 155.69 293.66 155.82 292.88 160.42Z" fill="black"/>
<path d="M286.37 134.91C285.12 140.55 284.37 147.55 288.26 151.31C288.26 151.31 285.85 157.04 275.36 157.04C265.78 157.04 270.72 151.31 270.72 151.31C277.05 149.81 276.91 142.03 275.92 137.64L286.37 134.91Z" fill="#FFB573"/>
<path opacity="0.2" d="M275.92 137.65C276.689 140.702 276.595 143.908 275.65 146.91C276.63 146.764 277.584 146.474 278.48 146.05C282.07 144.38 283.88 141.74 285.8 137.84C285.96 136.84 286.15 135.84 286.37 134.91L275.92 137.65Z" fill="black"/>
<path d="M267.43 130.2C267.599 131.127 267.952 132.01 268.467 132.798C268.982 133.586 269.649 134.264 270.43 134.79C272.54 136.16 274.43 134.42 274.49 132C274.57 129.83 273.56 126.49 271.11 126.09C270.572 126.022 270.025 126.085 269.516 126.275C269.007 126.464 268.553 126.774 268.19 127.179C267.828 127.583 267.57 128.069 267.438 128.596C267.305 129.122 267.303 129.673 267.43 130.2Z" fill="#FFB573"/>
<path opacity="0.2" d="M267.43 130.2C267.599 131.127 267.952 132.01 268.467 132.798C268.982 133.586 269.649 134.264 270.43 134.79C272.54 136.16 274.43 134.42 274.49 132C274.57 129.83 273.56 126.49 271.11 126.09C270.572 126.022 270.025 126.085 269.516 126.275C269.007 126.464 268.553 126.774 268.19 127.179C267.828 127.583 267.57 128.069 267.438 128.596C267.305 129.122 267.303 129.673 267.43 130.2Z" fill="black"/>
<path d="M277.73 116.85L272.65 133.55C266 121.62 273.47 111.48 277.73 116.85Z" fill="#263238"/>
<path d="M291.79 130.22C288.53 137.22 286.98 141.48 281.94 143.82C274.37 147.35 266.89 140.82 268.01 133.01C269.01 126.01 274.18 115.72 282.26 115.46C284.033 115.389 285.793 115.781 287.368 116.598C288.943 117.415 290.277 118.629 291.239 120.119C292.202 121.61 292.758 123.325 292.855 125.097C292.952 126.868 292.585 128.634 291.79 130.22Z" fill="#FFB573"/>
<path d="M287.33 136.29C283.33 136.78 286.63 126.64 290.1 123.9C285.45 123.28 272.96 122.24 273.56 115.45C274.28 107.22 283.56 109.68 283.56 111.61C285.33 112.88 299.24 111.83 297.88 122.37C304.7 122.66 300.89 134.66 287.33 136.29Z" fill="#263238"/>
<path d="M297.86 122.63H297.79C297.723 122.609 297.667 122.563 297.633 122.502C297.6 122.44 297.591 122.368 297.61 122.3C299.15 117.18 297.31 115.37 295.54 114.36C295.482 114.323 295.44 114.266 295.421 114.199C295.403 114.133 295.409 114.062 295.44 114C295.476 113.94 295.533 113.897 295.6 113.878C295.667 113.859 295.739 113.867 295.8 113.9C298.64 115.52 299.38 118.24 298.11 122.46C298.091 122.511 298.057 122.555 298.012 122.585C297.967 122.616 297.914 122.632 297.86 122.63Z" fill="#263238"/>
<path d="M300.11 128.21C300.074 128.212 300.039 128.206 300.006 128.192C299.973 128.178 299.944 128.157 299.92 128.13C299.896 128.106 299.876 128.077 299.863 128.046C299.85 128.014 299.843 127.98 299.843 127.945C299.843 127.911 299.85 127.877 299.863 127.845C299.876 127.813 299.896 127.785 299.92 127.76C301.43 126.4 302.04 125.19 301.69 124.26C301.34 123.33 299.8 122.63 297.84 122.63C297.771 122.63 297.705 122.603 297.656 122.554C297.607 122.505 297.58 122.439 297.58 122.37C297.58 122.301 297.607 122.235 297.656 122.187C297.705 122.138 297.771 122.11 297.84 122.11C300.05 122.11 301.72 122.86 302.18 124.11C302.49 124.91 302.4 126.27 300.27 128.19C300.22 128.213 300.164 128.22 300.11 128.21Z" fill="#263238"/>
<path d="M292.09 138.5C290.547 139.667 288.609 140.184 286.69 139.94C284.17 139.59 283.98 137.08 285.58 135.23C287.01 133.56 290.06 131.73 292.15 133.02C294.24 134.31 294 137 292.09 138.5Z" fill="#FFB573"/>
<path d="M256.71 220.13C256.71 220.13 254.23 277.81 254.5 301.34C254.77 325.8 261.35 397.19 261.35 397.19H274.42C274.42 397.19 276.83 327.19 278 303.19C279.27 276.99 283.83 220.12 283.83 220.12L256.71 220.13Z" fill="#219F27"/>
<path opacity="0.4" d="M256.71 220.13C256.71 220.13 254.23 277.81 254.5 301.34C254.77 325.8 261.35 397.19 261.35 397.19H274.42C274.42 397.19 276.83 327.19 278 303.19C279.27 276.99 283.83 220.12 283.83 220.12L256.71 220.13Z" fill="#DBFFDD"/>
<path d="M275.38 393.18C275.44 393.18 275.27 397.45 275.27 397.45H260.21L259.7 392.66L275.38 393.18Z" fill="#263238"/>
<path opacity="0.2" d="M274.38 235.4C273.93 264.02 275.23 281.4 278.38 295.4C279.17 281.75 280.46 263.7 281.59 248.7L274.38 235.4Z" fill="black"/>
<path d="M271.35 220.13C271.35 220.13 278.66 279.13 282.92 301.13C287.59 325.32 305.44 397.13 305.44 397.13H319.57C319.57 397.13 308.43 327.31 306 303.37C303.38 277.37 298 220.13 298 220.13H271.35Z" fill="#219F27"/>
<path opacity="0.4" d="M271.35 220.13C271.35 220.13 278.66 279.13 282.92 301.13C287.59 325.32 305.44 397.13 305.44 397.13H319.57C319.57 397.13 308.43 327.31 306 303.37C303.38 277.37 298 220.13 298 220.13H271.35Z" fill="#DBFFDD"/>
<path d="M319.66 393.51C319.72 393.51 320.27 397.45 320.27 397.45H304.74L303.48 392.92L319.66 393.51Z" fill="#263238"/>
<path d="M280.23 128.21C280 128.79 279.51 129.15 279.13 129.01C278.75 128.87 278.63 128.28 278.86 127.7C279.09 127.12 279.58 126.7 279.96 126.89C280.34 127.08 280.46 127.62 280.23 128.21Z" fill="#263238"/>
<path d="M273.69 125.77C273.46 126.35 272.97 126.71 272.59 126.57C272.21 126.43 272.09 125.84 272.32 125.26C272.55 124.68 273.04 124.32 273.42 124.46C273.8 124.6 273.92 125.19 273.69 125.77Z" fill="#263238"/>
<path d="M275.65 126.84C274.261 128.377 272.674 129.722 270.93 130.84C271.213 131.271 271.589 131.634 272.03 131.902C272.471 132.17 272.967 132.337 273.48 132.39L275.65 126.84Z" fill="#ED893E"/>
<path d="M274.53 134.59C274.508 134.582 274.487 134.57 274.47 134.554C274.453 134.538 274.439 134.518 274.429 134.497C274.42 134.475 274.415 134.452 274.415 134.428C274.415 134.405 274.42 134.381 274.43 134.36C274.438 134.336 274.45 134.315 274.467 134.296C274.483 134.278 274.503 134.263 274.526 134.252C274.549 134.242 274.573 134.236 274.598 134.236C274.622 134.236 274.647 134.24 274.67 134.25C275.393 134.53 276.172 134.638 276.945 134.565C277.717 134.492 278.462 134.24 279.12 133.83C279.154 133.797 279.198 133.779 279.245 133.779C279.292 133.779 279.336 133.797 279.37 133.83C279.403 133.865 279.421 133.911 279.421 133.96C279.421 134.008 279.403 134.055 279.37 134.09C278.661 134.553 277.853 134.84 277.011 134.927C276.169 135.014 275.318 134.898 274.53 134.59Z" fill="#263238"/>
<path d="M283 126.81C282.947 126.793 282.9 126.763 282.861 126.723C282.823 126.682 282.795 126.634 282.78 126.58C282.677 126.131 282.466 125.714 282.164 125.365C281.862 125.016 281.48 124.747 281.05 124.58C281.005 124.567 280.963 124.544 280.927 124.514C280.89 124.484 280.86 124.446 280.839 124.404C280.818 124.362 280.805 124.316 280.801 124.269C280.798 124.222 280.805 124.175 280.82 124.13C280.833 124.084 280.854 124.041 280.884 124.003C280.914 123.965 280.95 123.934 280.992 123.911C281.034 123.887 281.08 123.873 281.128 123.867C281.176 123.862 281.224 123.867 281.27 123.88C281.81 124.074 282.294 124.399 282.68 124.824C283.065 125.25 283.34 125.763 283.48 126.32C283.494 126.367 283.498 126.416 283.493 126.464C283.488 126.512 283.474 126.559 283.45 126.602C283.427 126.645 283.396 126.682 283.358 126.713C283.32 126.744 283.277 126.766 283.23 126.78C283.159 126.815 283.078 126.826 283 126.81Z" fill="#263238"/>
<path d="M271.67 122.34C271.624 122.315 271.583 122.281 271.55 122.24C271.488 122.164 271.458 122.067 271.468 121.969C271.477 121.872 271.525 121.782 271.6 121.72C272.04 121.336 272.565 121.062 273.132 120.921C273.699 120.78 274.291 120.776 274.86 120.91C274.95 120.94 275.024 121.003 275.067 121.088C275.11 121.172 275.118 121.27 275.09 121.36C275.06 121.452 274.996 121.53 274.91 121.577C274.824 121.623 274.724 121.635 274.63 121.61C274.179 121.509 273.711 121.518 273.264 121.634C272.817 121.751 272.404 121.972 272.06 122.28C272.007 122.326 271.943 122.355 271.874 122.366C271.805 122.377 271.734 122.368 271.67 122.34Z" fill="#263238"/>
<path d="M295.28 165.75L306 162.26C306 162.26 315.87 187.4 319.53 188.86C324.53 190.86 334.6 196.14 340.88 197.4C341.6 198.46 342.57 201.72 342.26 202.87C333.26 205.21 314.94 200.27 311.33 197.04C303.1 189.65 295.28 165.75 295.28 165.75Z" fill="#FFB573"/>
<path d="M302 153.06C309.27 154.12 317 179.41 317 179.41L301.46 188.07C301.46 188.07 295 176.07 291.89 167.07C288.67 157.75 294.23 151.92 302 153.06Z" fill="#263238"/>
<path d="M317.01 176.66L320.94 183.51L302.03 191.52L298.68 184.33L317.01 176.66Z" fill="#219F27"/>
<path d="M307.55 408.08C307.025 408.122 306.502 407.98 306.07 407.68C305.928 407.559 305.821 407.403 305.76 407.228C305.698 407.052 305.684 406.863 305.72 406.68C305.723 406.573 305.754 406.469 305.81 406.377C305.866 406.286 305.946 406.211 306.04 406.16C306.9 405.72 309.36 407.25 309.64 407.43C309.669 407.449 309.693 407.476 309.707 407.508C309.721 407.54 309.726 407.576 309.72 407.61C309.711 407.646 309.692 407.679 309.665 407.706C309.639 407.732 309.606 407.751 309.57 407.76C308.911 407.942 308.233 408.05 307.55 408.08ZM306.44 406.48C306.361 406.464 306.279 406.464 306.2 406.48C306.15 406.48 306.1 406.55 306.08 406.69C306.06 406.811 306.071 406.934 306.111 407.05C306.151 407.165 306.22 407.268 306.31 407.35C306.73 407.71 307.73 407.76 309.05 407.49C308.254 406.988 307.367 406.645 306.44 406.48Z" fill="#219F27"/>
<path d="M309.53 407.81H309.44C308.66 407.38 307.15 405.69 307.34 404.81C307.368 404.674 307.442 404.552 307.549 404.464C307.657 404.377 307.791 404.329 307.93 404.33C308.07 404.313 308.211 404.325 308.346 404.367C308.48 404.408 308.604 404.477 308.71 404.57C309.58 405.3 309.71 407.52 309.71 407.62C309.71 407.653 309.702 407.686 309.687 407.716C309.671 407.746 309.648 407.771 309.62 407.79C309.592 407.805 309.561 407.811 309.53 407.81ZM308.05 404.68H308C307.76 404.68 307.74 404.82 307.73 404.87C307.62 405.38 308.57 406.65 309.35 407.26C309.316 406.386 309.02 405.543 308.5 404.84C308.377 404.729 308.215 404.672 308.05 404.68Z" fill="#219F27"/>
<path d="M261.17 408.08C260.513 408.141 259.855 407.971 259.31 407.6C259.187 407.49 259.094 407.351 259.038 407.195C258.982 407.04 258.966 406.873 258.99 406.71C258.998 406.611 259.03 406.515 259.084 406.431C259.138 406.347 259.212 406.278 259.3 406.23C260.25 405.7 263.3 407.23 263.66 407.46C263.694 407.477 263.722 407.505 263.738 407.539C263.754 407.574 263.758 407.613 263.75 407.65C263.746 407.688 263.729 407.724 263.701 407.751C263.674 407.779 263.638 407.796 263.6 407.8C262.801 407.969 261.987 408.063 261.17 408.08ZM259.82 406.48C259.699 406.473 259.579 406.497 259.47 406.55C259.435 406.569 259.406 406.596 259.385 406.629C259.364 406.663 259.352 406.701 259.35 406.74C259.335 406.848 259.346 406.958 259.383 407.061C259.42 407.163 259.48 407.256 259.56 407.33C260.02 407.75 261.29 407.82 263 407.54C262.009 407.006 260.933 406.647 259.82 406.48Z" fill="#219F27"/>
<path d="M263.57 407.811H263.49C262.57 407.391 260.77 405.721 260.93 404.811C260.93 404.611 261.12 404.351 261.63 404.301C261.809 404.281 261.99 404.299 262.162 404.352C262.334 404.405 262.493 404.493 262.63 404.611C263.63 405.421 263.75 407.501 263.76 407.611C263.759 407.641 263.752 407.672 263.738 407.699C263.724 407.727 263.704 407.751 263.68 407.771C263.647 407.792 263.609 407.806 263.57 407.811ZM261.76 404.681H261.65C261.32 404.681 261.3 404.851 261.29 404.891C261.19 405.411 262.42 406.721 263.35 407.291C263.277 406.414 262.927 405.584 262.35 404.921C262.187 404.774 261.979 404.689 261.76 404.681Z" fill="#219F27"/>
<path d="M341.57 203L348.92 203.36L345.01 195.36C345.01 195.36 338.58 195.27 337.53 200.21L341.57 203Z" fill="#FFB573"/>
<path d="M354.86 199.51L350.97 192.45L345.01 195.38L348.92 203.38L354.86 199.51Z" fill="#FFB573"/>
<path d="M370.278 171.224L369.606 160.455L326.69 163.133L327.362 173.902L370.278 171.224Z" fill="#219F27"/>
<path opacity="0.5" d="M371.149 185.128L370.477 174.359L327.56 177.037L328.232 187.806L371.149 185.128Z" fill="#DBFFDD"/>
<path opacity="0.5" d="M371.149 185.128L370.477 174.359L327.56 177.037L328.232 187.806L371.149 185.128Z" fill="#219F27"/>
<path d="M333.78 355.56L125.19 338.85C122.573 338.633 120.147 337.389 118.444 335.39C116.741 333.391 115.898 330.799 116.1 328.18L125.16 215.06C125.382 212.447 126.628 210.028 128.627 208.33C130.626 206.633 133.216 205.795 135.83 206L344.42 222.7C347.031 222.932 349.447 224.18 351.147 226.176C352.847 228.172 353.696 230.755 353.51 233.37L344.45 346.5C344.211 349.106 342.959 351.514 340.964 353.208C338.97 354.902 336.39 355.746 333.78 355.56Z" fill="#219F27"/>
<path opacity="0.4" d="M333.78 355.56L125.19 338.85C122.573 338.633 120.147 337.389 118.444 335.39C116.741 333.391 115.898 330.799 116.1 328.18L125.16 215.06C125.382 212.447 126.628 210.028 128.627 208.33C130.626 206.633 133.216 205.795 135.83 206L344.42 222.7C347.031 222.932 349.447 224.18 351.147 226.176C352.847 228.172 353.696 230.755 353.51 233.37L344.45 346.5C344.211 349.106 342.959 351.514 340.964 353.208C338.97 354.902 336.39 355.746 333.78 355.56Z" fill="black"/>
<path d="M330.07 355.26L121.48 338.56C118.869 338.328 116.453 337.08 114.753 335.084C113.053 333.088 112.204 330.505 112.39 327.89L121.45 214.76C121.682 212.148 122.93 209.733 124.926 208.032C126.921 206.332 129.505 205.484 132.12 205.67L340.71 222.37C343.314 222.602 345.724 223.844 347.423 225.831C349.122 227.818 349.975 230.391 349.8 233L340.74 346.13C340.518 348.748 339.274 351.174 337.277 352.883C335.28 354.591 332.691 355.445 330.07 355.26Z" fill="#219F27"/>
<path d="M338.25 341.45L115.6 323.62C115.164 323.587 114.759 323.382 114.474 323.05C114.188 322.718 114.047 322.286 114.08 321.85L121.85 224.85C121.883 224.414 122.088 224.008 122.42 223.723C122.752 223.438 123.184 223.297 123.62 223.33L346.28 241.16C346.502 241.177 346.718 241.239 346.916 241.342C347.113 241.445 347.288 241.586 347.43 241.758C347.572 241.929 347.678 242.128 347.741 242.341C347.805 242.555 347.825 242.779 347.8 243L340.03 340C339.98 340.425 339.766 340.815 339.434 341.085C339.101 341.356 338.677 341.487 338.25 341.45Z" fill="#DBFFDD"/>
<path d="M136.24 220.81C136.087 220.82 135.933 220.82 135.78 220.81C134.297 220.75 132.897 220.111 131.881 219.03C130.864 217.949 130.311 216.513 130.341 215.03C130.371 213.546 130.982 212.133 132.042 211.095C133.101 210.056 134.526 209.475 136.01 209.475C137.494 209.475 138.919 210.056 139.978 211.095C141.038 212.133 141.649 213.546 141.679 215.03C141.709 216.513 141.156 217.949 140.139 219.03C139.123 220.111 137.723 220.75 136.24 220.81ZM136.24 210.21C134.948 210.261 133.727 210.817 132.84 211.758C131.953 212.699 131.47 213.951 131.496 215.244C131.521 216.537 132.053 217.768 132.977 218.674C133.9 219.579 135.142 220.086 136.435 220.086C137.728 220.086 138.97 219.579 139.893 218.674C140.817 217.768 141.349 216.537 141.374 215.244C141.4 213.951 140.917 212.699 140.03 211.758C139.143 210.817 137.922 210.261 136.63 210.21H136.24Z" fill="#DBFFDD"/>
<path d="M152.64 222.12H152.18C150.61 222.059 149.126 221.386 148.047 220.243C146.968 219.1 146.381 217.58 146.411 216.009C146.441 214.438 147.087 212.941 148.208 211.841C149.33 210.74 150.839 210.124 152.41 210.124C153.981 210.124 155.49 210.74 156.612 211.841C157.734 212.941 158.379 214.438 158.409 216.009C158.439 217.58 157.852 219.1 156.773 220.243C155.694 221.386 154.21 222.059 152.64 222.12ZM152.64 211.52C151.852 211.519 151.076 211.709 150.377 212.073C149.678 212.437 149.077 212.965 148.626 213.611C148.175 214.257 147.887 215.002 147.786 215.784C147.685 216.565 147.775 217.36 148.047 218.099C148.319 218.839 148.766 219.501 149.35 220.031C149.933 220.56 150.636 220.941 151.399 221.14C152.161 221.34 152.96 221.352 153.728 221.176C154.496 221 155.211 220.641 155.81 220.13C156.3 219.715 156.703 219.207 156.995 218.635C157.286 218.064 157.462 217.44 157.51 216.8C157.612 215.508 157.198 214.229 156.358 213.243C155.518 212.257 154.321 211.644 153.03 211.54L152.64 211.52Z" fill="#DBFFDD"/>
<path d="M169 223.439H168.54C167.065 223.379 165.673 222.743 164.662 221.668C163.651 220.593 163.101 219.165 163.131 217.689C163.161 216.213 163.769 214.808 164.823 213.776C165.877 212.743 167.294 212.164 168.77 212.164C170.246 212.164 171.663 212.743 172.717 213.776C173.771 214.808 174.379 216.213 174.409 217.689C174.439 219.165 173.889 220.593 172.878 221.668C171.867 222.743 170.475 223.379 169 223.439ZM169 212.839C167.74 212.89 166.549 213.434 165.685 214.352C164.82 215.271 164.35 216.492 164.376 217.753C164.402 219.014 164.92 220.215 165.821 221.098C166.722 221.981 167.934 222.475 169.195 222.475C170.456 222.475 171.668 221.981 172.569 221.098C173.47 220.215 173.988 219.014 174.014 217.753C174.04 216.492 173.57 215.271 172.705 214.352C171.841 213.434 170.65 212.89 169.39 212.839H169Z" fill="#DBFFDD"/>
<path d="M199.736 257.067L200.597 246.312L157.735 242.878L156.873 253.633L199.736 257.067Z" fill="#219F27"/>
<path d="M294.295 278.615L295.156 267.859L252.294 264.426L251.432 275.181L294.295 278.615Z" fill="#219F27"/>
<path opacity="0.5" d="M245.346 288.676L246.207 277.921L203.344 274.487L202.483 285.243L245.346 288.676Z" fill="#219F27"/>
<path opacity="0.5" d="M195.289 312.643L196.15 301.888L153.288 298.454L152.426 309.21L195.289 312.643Z" fill="#219F27"/>
<path d="M341.011 296.34L341.872 285.584L299.01 282.15L298.148 292.906L341.011 296.34Z" fill="#219F27"/>
<path opacity="0.5" d="M339.894 310.233L340.755 299.478L297.893 296.044L297.031 306.799L339.894 310.233Z" fill="#219F27"/>
<path d="M290.955 320.297L291.816 309.541L248.953 306.107L248.092 316.863L290.955 320.297Z" fill="#219F27"/>
<path d="M346.7 256.68V256.19L299.11 252.38L300.3 237.51H299.81L298.62 252.38L251.28 248.59L252.47 233.72H251.97L250.78 248.59L203.44 244.8L204.63 229.93H204.14L203 244.68L155.66 240.89L156.84 226H156.35L155.16 240.87L120.79 238.12V238.61L155.16 241.36L154 254.75L119.68 252V252.5L154 255.24L152.93 268.64L118.56 265.89V266.38L152.93 269.14L151.86 282.54L117.49 279.79V280.28L151.78 283L150.7 296.41L116.34 293.65V294.15L150.71 296.9L149.63 310.3L115.26 307.55V308.04L149.62 310.8L148.39 326.21H148.88L150.12 310.79L197.46 314.59L196.22 330H196.72L197.95 314.58L245.29 318.37L244 333.9H244.49L245.72 318.48L293.06 322.27L291.83 337.69H292.32L293.56 322.27L341.14 326.08V325.59L293.56 321.78L294.63 308.38L342.22 312.19V311.69L294.7 308L295.77 294.6L343.36 298.41V297.92L295.77 294.11L296.85 280.7L344.43 284.51V284.02L296.85 280.21L297.92 266.81L345.51 270.62V270.12L298 266.27L299.07 252.87L346.7 256.68ZM250.78 249L249.71 262.41L202.37 258.62L203.44 245.21L250.78 249ZM200.15 286.41L201.22 273.01L248.56 276.8L247.49 290.2L200.15 286.41ZM247.45 290.69L246.37 304.1L199 300.3L200.08 286.9L247.45 290.69ZM201.26 272.51L202.33 259.11L249.67 262.9L248.6 276.3L201.26 272.51ZM155.61 241.38L203 245.17L201.93 258.58L154.59 254.79L155.61 241.38ZM154.5 255.28L201.84 259.07L200.76 272.47L153.42 268.68L154.5 255.28ZM153.38 269.18L200.72 273L199.65 286.4L152.31 282.61L153.38 269.18ZM152.27 283.07L199.61 286.86L198.54 300.27L151.2 296.48L152.27 283.07ZM150.09 310.37L151.16 296.97L198.5 300.76L197.43 314.16L150.09 310.37ZM197.92 314.2L199 300.8L246.34 304.59L245.26 318L197.92 314.2ZM293.09 321.82L245.75 318L246.83 304.6L294.17 308.39L293.09 321.82ZM294.21 307.92L246.87 304.13L247.94 290.73L295.28 294.52L294.21 307.92ZM295.32 294L248 290.24L249.07 276.84L296.41 280.63L295.32 294ZM296.43 280.1L249.09 276.31L250.16 262.91L297.5 266.7L296.43 280.1ZM297.54 266.21L250.2 262.42L251.28 249L298.62 252.79L297.54 266.21Z" fill="#219F27"/>
</svg>
